<svg width="51" height="51" viewBox="0 0 51 51" fill="none" xmlns="http://www.w3.org/2000/svg">
<path d="M45.6279 12.503C44.1234 13.152 42.4861 13.6191 40.7997 13.801C42.5506 12.7608 43.8618 11.1175 44.4872 9.17936C42.8442 10.1567 41.0444 10.8421 39.1674 11.205C38.3829 10.3664 37.4342 9.69826 36.3802 9.24233C35.3262 8.7864 34.1897 8.55242 33.0413 8.55495C28.3951 8.55495 24.6585 12.3211 24.6585 16.9427C24.6585 17.5917 24.7371 18.2407 24.865 18.8651C17.9079 18.5013 11.7031 15.1776 7.57809 10.0889C6.82646 11.3727 6.43258 12.8345 6.43743 14.3222C6.43743 17.2328 7.91734 19.7993 10.1741 21.3087C8.84414 21.2563 7.54536 20.8908 6.38335 20.2418V20.345C6.38335 24.4209 9.26449 27.7986 13.1044 28.5755C12.3834 28.7627 11.6417 28.8585 10.8968 28.8606C10.3511 28.8606 9.83482 28.8065 9.31366 28.7328C10.3757 32.0564 13.4682 34.4705 17.1508 34.5492C14.2696 36.8059 10.6608 38.1334 6.74226 38.1334C6.03919 38.1334 5.39019 38.1088 4.71661 38.0301C8.43358 40.4147 12.8438 41.7914 17.5933 41.7914C33.0118 41.7914 41.4487 29.018 41.4487 17.931C41.4487 17.5671 41.4487 17.2033 41.4241 16.8395C43.0565 15.6447 44.4872 14.1648 45.6279 12.503Z" fill="white"/>
</svg>
